<mxfile host="app.diagrams.net" agent="Mozilla/5.0 (Macintosh; Intel Mac OS X 10_15_7) AppleWebKit/537.36 (KHTML, like Gecko) Chrome/136.0.0.0 Safari/537.36" version="27.0.3">
  <diagram name="第 1 页" id="P6Lwt04iGCWbSaG4erIW">
    <mxGraphModel dx="1089" dy="630" grid="1" gridSize="10" guides="1" tooltips="1" connect="1" arrows="1" fold="1" page="1" pageScale="1" pageWidth="827" pageHeight="1169" math="0" shadow="0">
      <root>
        <mxCell id="0" />
        <mxCell id="1" parent="0" />
        <mxCell id="sMMGfhcA2TqT5hPP_hKD-4" style="edgeStyle=orthogonalEdgeStyle;rounded=0;orthogonalLoop=1;jettySize=auto;html=1;exitX=0.5;exitY=1;exitDx=0;exitDy=0;entryX=0.5;entryY=0;entryDx=0;entryDy=0;" edge="1" parent="1" source="sMMGfhcA2TqT5hPP_hKD-1" target="sMMGfhcA2TqT5hPP_hKD-2">
          <mxGeometry relative="1" as="geometry" />
        </mxCell>
        <mxCell id="sMMGfhcA2TqT5hPP_hKD-6" value="购买设备，分配设备，需要调用适配服务" style="edgeLabel;html=1;align=center;verticalAlign=middle;resizable=0;points=[];" vertex="1" connectable="0" parent="sMMGfhcA2TqT5hPP_hKD-4">
          <mxGeometry x="-0.2291" y="-1" relative="1" as="geometry">
            <mxPoint as="offset" />
          </mxGeometry>
        </mxCell>
        <mxCell id="sMMGfhcA2TqT5hPP_hKD-1" value="云发单业务服务" style="rounded=1;whiteSpace=wrap;html=1;" vertex="1" parent="1">
          <mxGeometry x="300" y="190" width="120" height="60" as="geometry" />
        </mxCell>
        <mxCell id="sMMGfhcA2TqT5hPP_hKD-13" style="edgeStyle=orthogonalEdgeStyle;rounded=0;orthogonalLoop=1;jettySize=auto;html=1;exitX=0.5;exitY=1;exitDx=0;exitDy=0;entryX=0.5;entryY=0;entryDx=0;entryDy=0;" edge="1" parent="1" source="sMMGfhcA2TqT5hPP_hKD-2" target="sMMGfhcA2TqT5hPP_hKD-12">
          <mxGeometry relative="1" as="geometry" />
        </mxCell>
        <mxCell id="sMMGfhcA2TqT5hPP_hKD-2" value="发单帝适配服务" style="rounded=1;whiteSpace=wrap;html=1;" vertex="1" parent="1">
          <mxGeometry x="300" y="420" width="120" height="60" as="geometry" />
        </mxCell>
        <mxCell id="sMMGfhcA2TqT5hPP_hKD-7" style="edgeStyle=orthogonalEdgeStyle;rounded=0;orthogonalLoop=1;jettySize=auto;html=1;exitX=0;exitY=0.5;exitDx=0;exitDy=0;entryX=0.006;entryY=0.375;entryDx=0;entryDy=0;entryPerimeter=0;" edge="1" parent="1" source="sMMGfhcA2TqT5hPP_hKD-2" target="sMMGfhcA2TqT5hPP_hKD-1">
          <mxGeometry relative="1" as="geometry">
            <Array as="points">
              <mxPoint x="120" y="450" />
              <mxPoint x="120" y="213" />
            </Array>
          </mxGeometry>
        </mxCell>
        <mxCell id="sMMGfhcA2TqT5hPP_hKD-8" value="消息回调封装" style="edgeLabel;html=1;align=center;verticalAlign=middle;resizable=0;points=[];" vertex="1" connectable="0" parent="sMMGfhcA2TqT5hPP_hKD-7">
          <mxGeometry x="0.0012" y="3" relative="1" as="geometry">
            <mxPoint as="offset" />
          </mxGeometry>
        </mxCell>
        <mxCell id="sMMGfhcA2TqT5hPP_hKD-11" style="edgeStyle=orthogonalEdgeStyle;rounded=0;orthogonalLoop=1;jettySize=auto;html=1;exitX=0.5;exitY=1;exitDx=0;exitDy=0;entryX=1;entryY=0.5;entryDx=0;entryDy=0;" edge="1" parent="1" source="sMMGfhcA2TqT5hPP_hKD-9" target="sMMGfhcA2TqT5hPP_hKD-2">
          <mxGeometry relative="1" as="geometry" />
        </mxCell>
        <mxCell id="sMMGfhcA2TqT5hPP_hKD-14" style="edgeStyle=orthogonalEdgeStyle;rounded=0;orthogonalLoop=1;jettySize=auto;html=1;exitX=0.5;exitY=1;exitDx=0;exitDy=0;entryX=1;entryY=0.5;entryDx=0;entryDy=0;" edge="1" parent="1" source="sMMGfhcA2TqT5hPP_hKD-9" target="sMMGfhcA2TqT5hPP_hKD-12">
          <mxGeometry relative="1" as="geometry" />
        </mxCell>
        <mxCell id="sMMGfhcA2TqT5hPP_hKD-9" value="SDK：相关推送消息，获取登录二维码，推送消息，朋友圈等等，" style="rounded=1;whiteSpace=wrap;html=1;" vertex="1" parent="1">
          <mxGeometry x="590" y="300" width="120" height="60" as="geometry" />
        </mxCell>
        <mxCell id="sMMGfhcA2TqT5hPP_hKD-10" style="edgeStyle=orthogonalEdgeStyle;rounded=0;orthogonalLoop=1;jettySize=auto;html=1;exitX=1;exitY=0.5;exitDx=0;exitDy=0;entryX=0.448;entryY=0.009;entryDx=0;entryDy=0;entryPerimeter=0;" edge="1" parent="1" source="sMMGfhcA2TqT5hPP_hKD-1" target="sMMGfhcA2TqT5hPP_hKD-9">
          <mxGeometry relative="1" as="geometry" />
        </mxCell>
        <mxCell id="sMMGfhcA2TqT5hPP_hKD-12" value="发单帝服务接口" style="rounded=1;whiteSpace=wrap;html=1;" vertex="1" parent="1">
          <mxGeometry x="300" y="570" width="120" height="60" as="geometry" />
        </mxCell>
        <mxCell id="sMMGfhcA2TqT5hPP_hKD-17" value="" style="edgeStyle=orthogonalEdgeStyle;rounded=0;orthogonalLoop=1;jettySize=auto;html=1;" edge="1" parent="1" source="sMMGfhcA2TqT5hPP_hKD-15" target="sMMGfhcA2TqT5hPP_hKD-16">
          <mxGeometry relative="1" as="geometry" />
        </mxCell>
        <mxCell id="sMMGfhcA2TqT5hPP_hKD-19" value="" style="edgeStyle=orthogonalEdgeStyle;rounded=0;orthogonalLoop=1;jettySize=auto;html=1;" edge="1" parent="1" source="sMMGfhcA2TqT5hPP_hKD-15" target="sMMGfhcA2TqT5hPP_hKD-18">
          <mxGeometry relative="1" as="geometry" />
        </mxCell>
        <mxCell id="sMMGfhcA2TqT5hPP_hKD-20" value="" style="edgeStyle=orthogonalEdgeStyle;rounded=0;orthogonalLoop=1;jettySize=auto;html=1;" edge="1" parent="1" source="sMMGfhcA2TqT5hPP_hKD-15" target="sMMGfhcA2TqT5hPP_hKD-18">
          <mxGeometry relative="1" as="geometry" />
        </mxCell>
        <mxCell id="sMMGfhcA2TqT5hPP_hKD-23" style="edgeStyle=orthogonalEdgeStyle;rounded=0;orthogonalLoop=1;jettySize=auto;html=1;exitX=1;exitY=0.5;exitDx=0;exitDy=0;entryX=0.5;entryY=0;entryDx=0;entryDy=0;" edge="1" parent="1" source="sMMGfhcA2TqT5hPP_hKD-15" target="sMMGfhcA2TqT5hPP_hKD-21">
          <mxGeometry relative="1" as="geometry" />
        </mxCell>
        <mxCell id="sMMGfhcA2TqT5hPP_hKD-15" value="xxl-job" style="rounded=1;whiteSpace=wrap;html=1;" vertex="1" parent="1">
          <mxGeometry x="294" y="760" width="120" height="60" as="geometry" />
        </mxCell>
        <mxCell id="sMMGfhcA2TqT5hPP_hKD-25" value="" style="edgeStyle=orthogonalEdgeStyle;rounded=0;orthogonalLoop=1;jettySize=auto;html=1;" edge="1" parent="1" source="sMMGfhcA2TqT5hPP_hKD-16" target="sMMGfhcA2TqT5hPP_hKD-24">
          <mxGeometry relative="1" as="geometry" />
        </mxCell>
        <mxCell id="sMMGfhcA2TqT5hPP_hKD-16" value="分片job1" style="rounded=1;whiteSpace=wrap;html=1;" vertex="1" parent="1">
          <mxGeometry x="90" y="900" width="120" height="60" as="geometry" />
        </mxCell>
        <mxCell id="sMMGfhcA2TqT5hPP_hKD-27" value="" style="edgeStyle=orthogonalEdgeStyle;rounded=0;orthogonalLoop=1;jettySize=auto;html=1;" edge="1" parent="1" source="sMMGfhcA2TqT5hPP_hKD-18" target="sMMGfhcA2TqT5hPP_hKD-26">
          <mxGeometry relative="1" as="geometry" />
        </mxCell>
        <mxCell id="sMMGfhcA2TqT5hPP_hKD-18" value="分片job2" style="rounded=1;whiteSpace=wrap;html=1;" vertex="1" parent="1">
          <mxGeometry x="294" y="900" width="120" height="60" as="geometry" />
        </mxCell>
        <mxCell id="sMMGfhcA2TqT5hPP_hKD-29" value="" style="edgeStyle=orthogonalEdgeStyle;rounded=0;orthogonalLoop=1;jettySize=auto;html=1;" edge="1" parent="1" source="sMMGfhcA2TqT5hPP_hKD-21" target="sMMGfhcA2TqT5hPP_hKD-28">
          <mxGeometry relative="1" as="geometry" />
        </mxCell>
        <mxCell id="sMMGfhcA2TqT5hPP_hKD-21" value="分片job N" style="rounded=1;whiteSpace=wrap;html=1;" vertex="1" parent="1">
          <mxGeometry x="490" y="900" width="120" height="60" as="geometry" />
        </mxCell>
        <mxCell id="sMMGfhcA2TqT5hPP_hKD-31" value="" style="edgeStyle=orthogonalEdgeStyle;rounded=0;orthogonalLoop=1;jettySize=auto;html=1;" edge="1" parent="1" source="sMMGfhcA2TqT5hPP_hKD-24" target="sMMGfhcA2TqT5hPP_hKD-30">
          <mxGeometry relative="1" as="geometry" />
        </mxCell>
        <mxCell id="sMMGfhcA2TqT5hPP_hKD-24" value="device_id % 1" style="rounded=1;whiteSpace=wrap;html=1;" vertex="1" parent="1">
          <mxGeometry x="90" y="1030" width="120" height="60" as="geometry" />
        </mxCell>
        <mxCell id="sMMGfhcA2TqT5hPP_hKD-34" style="edgeStyle=orthogonalEdgeStyle;rounded=0;orthogonalLoop=1;jettySize=auto;html=1;exitX=0.5;exitY=1;exitDx=0;exitDy=0;entryX=0.5;entryY=0;entryDx=0;entryDy=0;" edge="1" parent="1" source="sMMGfhcA2TqT5hPP_hKD-26" target="sMMGfhcA2TqT5hPP_hKD-32">
          <mxGeometry relative="1" as="geometry" />
        </mxCell>
        <mxCell id="sMMGfhcA2TqT5hPP_hKD-26" value="device_id % 2" style="rounded=1;whiteSpace=wrap;html=1;" vertex="1" parent="1">
          <mxGeometry x="294" y="1030" width="120" height="60" as="geometry" />
        </mxCell>
        <mxCell id="sMMGfhcA2TqT5hPP_hKD-35" style="edgeStyle=orthogonalEdgeStyle;rounded=0;orthogonalLoop=1;jettySize=auto;html=1;exitX=0.5;exitY=1;exitDx=0;exitDy=0;entryX=0.5;entryY=0;entryDx=0;entryDy=0;" edge="1" parent="1" source="sMMGfhcA2TqT5hPP_hKD-28" target="sMMGfhcA2TqT5hPP_hKD-33">
          <mxGeometry relative="1" as="geometry" />
        </mxCell>
        <mxCell id="sMMGfhcA2TqT5hPP_hKD-28" value="device_id % 3" style="rounded=1;whiteSpace=wrap;html=1;" vertex="1" parent="1">
          <mxGeometry x="490" y="1030" width="120" height="60" as="geometry" />
        </mxCell>
        <mxCell id="sMMGfhcA2TqT5hPP_hKD-37" style="edgeStyle=orthogonalEdgeStyle;rounded=0;orthogonalLoop=1;jettySize=auto;html=1;exitX=0.5;exitY=1;exitDx=0;exitDy=0;entryX=0.5;entryY=0;entryDx=0;entryDy=0;" edge="1" parent="1" source="sMMGfhcA2TqT5hPP_hKD-30" target="sMMGfhcA2TqT5hPP_hKD-36">
          <mxGeometry relative="1" as="geometry" />
        </mxCell>
        <mxCell id="sMMGfhcA2TqT5hPP_hKD-30" value="根据上次推送游标，拉取最新数据" style="rounded=1;whiteSpace=wrap;html=1;" vertex="1" parent="1">
          <mxGeometry x="90" y="1170" width="120" height="60" as="geometry" />
        </mxCell>
        <mxCell id="sMMGfhcA2TqT5hPP_hKD-40" style="edgeStyle=orthogonalEdgeStyle;rounded=0;orthogonalLoop=1;jettySize=auto;html=1;exitX=0.5;exitY=1;exitDx=0;exitDy=0;entryX=0.5;entryY=0;entryDx=0;entryDy=0;" edge="1" parent="1" source="sMMGfhcA2TqT5hPP_hKD-32" target="sMMGfhcA2TqT5hPP_hKD-38">
          <mxGeometry relative="1" as="geometry" />
        </mxCell>
        <mxCell id="sMMGfhcA2TqT5hPP_hKD-32" value="根据上次推送游标，拉取最新数据" style="rounded=1;whiteSpace=wrap;html=1;" vertex="1" parent="1">
          <mxGeometry x="294" y="1169" width="120" height="60" as="geometry" />
        </mxCell>
        <mxCell id="sMMGfhcA2TqT5hPP_hKD-41" style="edgeStyle=orthogonalEdgeStyle;rounded=0;orthogonalLoop=1;jettySize=auto;html=1;exitX=0.5;exitY=1;exitDx=0;exitDy=0;entryX=0.5;entryY=0;entryDx=0;entryDy=0;" edge="1" parent="1" source="sMMGfhcA2TqT5hPP_hKD-33" target="sMMGfhcA2TqT5hPP_hKD-39">
          <mxGeometry relative="1" as="geometry" />
        </mxCell>
        <mxCell id="sMMGfhcA2TqT5hPP_hKD-33" value="根据上次推送游标，拉取最新数据" style="rounded=1;whiteSpace=wrap;html=1;" vertex="1" parent="1">
          <mxGeometry x="490" y="1169" width="120" height="60" as="geometry" />
        </mxCell>
        <mxCell id="sMMGfhcA2TqT5hPP_hKD-43" style="edgeStyle=orthogonalEdgeStyle;rounded=0;orthogonalLoop=1;jettySize=auto;html=1;exitX=0.5;exitY=1;exitDx=0;exitDy=0;entryX=0.5;entryY=0;entryDx=0;entryDy=0;" edge="1" parent="1" source="sMMGfhcA2TqT5hPP_hKD-36" target="sMMGfhcA2TqT5hPP_hKD-42">
          <mxGeometry relative="1" as="geometry" />
        </mxCell>
        <mxCell id="sMMGfhcA2TqT5hPP_hKD-36" value="组装数据" style="rounded=1;whiteSpace=wrap;html=1;" vertex="1" parent="1">
          <mxGeometry x="90" y="1310" width="120" height="60" as="geometry" />
        </mxCell>
        <mxCell id="sMMGfhcA2TqT5hPP_hKD-44" style="edgeStyle=orthogonalEdgeStyle;rounded=0;orthogonalLoop=1;jettySize=auto;html=1;exitX=0.5;exitY=1;exitDx=0;exitDy=0;entryX=0.5;entryY=0;entryDx=0;entryDy=0;" edge="1" parent="1" source="sMMGfhcA2TqT5hPP_hKD-38" target="sMMGfhcA2TqT5hPP_hKD-42">
          <mxGeometry relative="1" as="geometry" />
        </mxCell>
        <mxCell id="sMMGfhcA2TqT5hPP_hKD-38" value="组装数据" style="rounded=1;whiteSpace=wrap;html=1;" vertex="1" parent="1">
          <mxGeometry x="294" y="1310" width="120" height="60" as="geometry" />
        </mxCell>
        <mxCell id="sMMGfhcA2TqT5hPP_hKD-45" style="edgeStyle=orthogonalEdgeStyle;rounded=0;orthogonalLoop=1;jettySize=auto;html=1;exitX=0.5;exitY=1;exitDx=0;exitDy=0;entryX=0.5;entryY=0;entryDx=0;entryDy=0;" edge="1" parent="1" source="sMMGfhcA2TqT5hPP_hKD-39" target="sMMGfhcA2TqT5hPP_hKD-42">
          <mxGeometry relative="1" as="geometry" />
        </mxCell>
        <mxCell id="sMMGfhcA2TqT5hPP_hKD-39" value="组装数据" style="rounded=1;whiteSpace=wrap;html=1;" vertex="1" parent="1">
          <mxGeometry x="490" y="1310" width="120" height="60" as="geometry" />
        </mxCell>
        <mxCell id="sMMGfhcA2TqT5hPP_hKD-42" value="miyuan-service-wechat" style="rounded=1;whiteSpace=wrap;html=1;" vertex="1" parent="1">
          <mxGeometry x="294" y="1450" width="120" height="60" as="geometry" />
        </mxCell>
      </root>
    </mxGraphModel>
  </diagram>
</mxfile>
